<svg xmlns="http://www.w3.org/2000/svg" data-name="Layer 1" width="153" height="37">
  <rect id="backgroundrect" width="100%" height="100%" x="0" y="0" fill="none" stroke="none"/>
  <title>Smartshare_logo_darktheme</title>
  <g class="currentLayer" style="">
    <title>Layer 1</title>
    <path d="M1.412,16.06087a11.73546,11.73546,0,0,0,5.22157,1.3036c1.8509,0,2.74576-.65162,2.74576-1.7065,0-1.024-.89486-1.58325-3.16216-2.38988C2.81377,11.99679.54647,10.073.54647,6.97005.54647,3.27794,3.56033.42284,8.6336.42284a12.9592,12.9592,0,0,1,5.432,1.05535L12.93108,5.97794a10.13492,10.13492,0,0,0-4.3561-.994c-1.64221,0-2.538.62069-2.538,1.5515,0,1.0558,1.075,1.45907,3.61211,2.45173,3.61131,1.39676,5.22245,3.382,5.22245,6.29886,0,3.60033-2.68616,6.6723-8.56558,6.6723A13.764,13.764,0,0,1,.39649,20.68378Z"
          style="" id="svg_1" class="" fill="#000000" fill-opacity="1"/>
    <path d="M16.64205,11.593c0-2.047-.06029-3.7849-.12066-5.21222h4.50784l.2086,1.92384h.11891a5.09038,5.09038,0,0,1,4.35867-2.26571A4.03137,4.03137,0,0,1,29.68362,8.4897h.06029a6.05824,6.05824,0,0,1,2.0294-1.82976,5.3724,5.3724,0,0,1,2.59657-.62106c3.163,0,4.98446,2.38988,4.98446,6.64174v8.96526H34.13021V13.51772c0-1.89291-.5362-2.97964-1.73023-2.97964a1.688,1.688,0,0,0-1.64141,1.30314,3.45036,3.45036,0,0,0-.14909,1.11767v8.687H25.38614V13.36133c0-1.70467-.50778-2.82325-1.73191-2.82325a1.81176,1.81176,0,0,0-1.64054,1.24175,3.804,3.804,0,0,0-.14918,1.14767v8.71838H16.64205Z"
          style="" id="svg_2" class="" fill="#000000" fill-opacity="1"/>
    <path d="M54.70257,17.92422a22.99125,22.99125,0,0,0,.23967,3.72166H50.0766l-.26888-1.33361h-.119A5.0599,5.0599,0,0,1,45.63,21.98739a4.70291,4.70291,0,0,1-4.86467-4.80932c0-4.09464,3.55094-5.92615,8.5346-5.92615V11.1283c0-.62115-.44747-1.30361-2.4164-1.30361a9.051,9.051,0,0,0-4.14839,1.11712l-.92584-3.50663a12.66958,12.66958,0,0,1,6.08888-1.3963c5.04317,0,6.80438,2.91687,6.80438,6.73223Zm-5.22334-3.25928c-2.2078,0-3.43193.62105-3.43193,1.98615a1.361,1.361,0,0,0,1.52242,1.45816,2.02061,2.02061,0,0,0,1.8509-1.3964,3.59721,3.59721,0,0,0,.05861-.80709Z"
          style="" id="svg_3" class="" fill="#000000" fill-opacity="1"/>
    <path d="M57.01011,11.53111c0-2.42035-.02931-3.87851-.119-5.15036H61.486l.20948,2.7614h.11891a4.20939,4.20939,0,0,1,3.91039-3.10327,3.8448,3.8448,0,0,1,1.07415.09361V11.377a5.58746,5.58746,0,0,0-1.37243-.15556c-1.58184,0-2.65687.68209-2.95427,1.92292a8.09541,8.09541,0,0,0-.06127.96173v7.53978H57.01011Z"
          style="" id="svg_4" class="" fill="#000000" fill-opacity="1"/>
    <path d="M75.39024,2.03748V6.38075h3.04493v4.095H75.39024v4.37649c0,1.79884.38886,2.54361,1.7018,2.54361a3.91145,3.91145,0,0,0,1.28275-.12463v4.25231a9.80093,9.80093,0,0,1-3.19315.43475,5.09839,5.09839,0,0,1-3.67072-1.39776c-.89486-.92989-1.37332-2.42036-1.37332-4.74792V10.47576H68.31777v-4.095H70.1376v-2.855Z"
          style="" id="svg_5" class="selected" fill="#000000" fill-opacity="1"/>
    <path d="M95.31969,3.84494,92.50715,6.33573Q90.77248,4.09686,89.275,4.09651a1.77057,1.77057,0,0,0-1.23154.441A1.37142,1.37142,0,0,0,87.55362,5.594a2.414,2.414,0,0,0,.44771,1.2733,30.73022,30.73022,0,0,0,2.715,3.09253,20.69707,20.69707,0,0,1,1.581,1.8052,9.61929,9.61929,0,0,1,1.30873,2.302,6.20331,6.20331,0,0,1,.39859,2.17607,5.5098,5.5098,0,0,1-1.76346,4.156,6.28763,6.28763,0,0,1-4.51985,1.67925,7.93511,7.93511,0,0,1-6.84259-3.9883l2.96622-2.3929q1.79152,2.72886,3.87637,2.72868a2.33761,2.33761,0,0,0,1.67223-.64348,2.06281,2.06281,0,0,0,.67857-1.55329,2.98231,2.98231,0,0,0-.41262-1.45539,19.15843,19.15843,0,0,0-2.35782-2.79886,20.96425,20.96425,0,0,1-2.701-3.27428,5.84135,5.84135,0,0,1-.86734-2.93885A5.22433,5.22433,0,0,1,84.979,2.34744,5.2048,5.2048,0,0,1,89.2048.45838,7.33438,7.33438,0,0,1,95.31969,3.84494Z"
          style="fill:#158bc8" id="svg_6"/>
    <path d="M98.37223.45838h3.71426L101.0774,7.87919a6.62038,6.62038,0,0,1,4.45951-1.93537,4.40033,4.40033,0,0,1,3.23919,1.25364,4.26764,4.26764,0,0,1,1.26242,3.1585,22.10512,22.10512,0,0,1-.23789,2.6757l-1.16557,8.52885h-3.72831l1.13751-8.326a16.29505,16.29505,0,0,0,.16771-1.93117,1.861,1.861,0,0,0-.52489-1.4203,2.08945,2.08945,0,0,0-1.49258-.49683,3.27724,3.27724,0,0,0-1.87714.65121,4.163,4.163,0,0,0-1.44346,1.80591,18.568,18.568,0,0,0-.92488,4.33319l-.73191,5.384h-3.7283Z"
          style="fill:#158bc8" id="svg_7"/>
    <path d="M124.083,6.33573h3.74093l-2.12273,15.22478h-3.69883l.22385-1.63539a8.13839,8.13839,0,0,1-2.27712,1.58,6.03915,6.03915,0,0,1-2.37466.44736,5.84937,5.84937,0,0,1-4.81248-2.22519,8.027,8.027,0,0,1-1.78591-5.17738,8.62539,8.62539,0,0,1,1.14312-4.289,8.36842,8.36842,0,0,1,3.06938-3.17674,7.79788,7.79788,0,0,1,4.02864-1.14031,5.36756,5.36756,0,0,1,2.60413.64805,5.29116,5.29116,0,0,1,1.96906,1.8873ZM118.47193,18.622a4.60032,4.60032,0,0,0,2.40765-.61472,4.76741,4.76741,0,0,0,1.72485-1.92766,5.66115,5.66115,0,0,0,.69752-2.682,4.04606,4.04606,0,0,0-1.04909-2.91043,3.64621,3.64621,0,0,0-2.76763-1.101,4.503,4.503,0,0,0-3.39357,1.46943,5.28618,5.28618,0,0,0-1.39364,3.79216,3.97078,3.97078,0,0,0,1.05611,2.88271A3.6146,3.6146,0,0,0,118.47193,18.622Z"
          style="fill:#158bc8" id="svg_8"/>
    <path d="M130.52558,6.33573h3.32972l-.266,2.07081q1.49786-2.46255,3.59638-2.46272a2.38555,2.38555,0,0,1,1.04979.26771l-1.367,3.39778a2.10444,2.10444,0,0,0-.62454-.153,2.40124,2.40124,0,0,0-1.95152,1.26627,13.26674,13.26674,0,0,0-1.35575,5.11457l-.73752,5.72333h-3.75356Z"
          style="fill:#158bc8" id="svg_9"/>
    <path d="M148.01836,17.10486l3.289,1.70451a7.63392,7.63392,0,0,1-2.93183,2.29782,9.53373,9.53373,0,0,1-4.0511.84524,7.52836,7.52836,0,0,1-5.49246-1.95924,6.94036,6.94036,0,0,1-2.00835-5.20545,8.63467,8.63467,0,0,1,2.5122-6.27629,8.17653,8.17653,0,0,1,6.06577-2.56763,7.66292,7.66292,0,0,1,3.81321.93751A6.67421,6.67421,0,0,1,151.85262,9.61a8.06448,8.06448,0,0,1,.96558,3.8904,9.97594,9.97594,0,0,1-.13964,1.53925H140.53228a3.51125,3.51125,0,0,0,1.04277,2.529,3.78152,3.78152,0,0,0,2.72132.94137A5.52264,5.52264,0,0,0,148.01836,17.10486Zm.95154-4.80791a3.9285,3.9285,0,0,0-1.39925-2.12029,3.87981,3.87981,0,0,0-2.36484-.72032,4.34468,4.34468,0,0,0-2.47641.74138,4.612,4.612,0,0,0-1.67924,2.09923Z"
          style="fill:#158bc8" id="svg_10"/>
    <text style="font-size:11.32519817352295px;fill:gray;font-family:ArialMT, Arial;letter-spacing:0.7930066117736002em" y="36.69942092895508" x="-0.47117000818252563" id="svg_11">ENTERPRISE</text>
  </g>
</svg>
